# Helice

# Cuerpo
v 0.000000 0.100000 0.000000
v 0.070711 0.070711 0.000000
v 0.021851 0.070711 0.067250
v -0.057206 0.070711 0.041563
v -0.057206 0.070711 -0.041563
v 0.021851 0.070711 -0.067250
v 0.100000 0.000000 0.000000
v 0.030902 0.000000 0.095106
v -0.080902 0.000000 0.058779
v -0.080902 0.000000 -0.058779
v 0.030902 0.000000 -0.095106
v 0.000000 0.000000 0.000000

# Uniones
f 1 3 2
f 1 4 3
f 1 5 4
f 1 6 5
f 1 2 6
f 2 3 8
f 2 8 7
f 3 4 9
f 3 9 8
f 4 5 10
f 4 10 9
f 5 6 11
f 5 11 10
f 6 2 7
f 6 7 11
f 7 12 8
f 8 12 9
f 9 10 12
f 10 11 12
f 11 7 12