v  0 0 0
v  2 0 2
v -2 0 2

v  0 -0.3 0
v  2 -0.3 2
v -2 -0.3 2


v  2 0 14
v -2 0 14


v  2  0.8 2
v -2  0.8 2
v  2  0.8 14
v -2  0.8 14

v  4  3 2
v -4  3 2
v  4  3 16
v -4  3 16

v  4  7 2
v -4  7 2
v  4  7 16
v -4  7 16



f 1 3 2

f 5 4 1
f 5 1 2

f 4 6 3
f 4 3 1

f 6 5 2
f 6 2 3


f 2 3 10
f 2 10 9

f 7 2 9
f 7 9 11

f 8 7 11
f 8 11 12

f 3 8 12
f 3 12 10

f 10 12 11
f 11 9 10



f 9 10 14
f 9 14 13

f 13 14 18
f 13 18 17


f 11 9 13
f 11 13 15

f 15 13 17
f 15 17 19


f 12 11 15
f 12 15 16

f 16 15 19
f 16 19 20


f 10 12 16
f 10 16 14

f 14 16 20
f 14 20 18


f 9 11 15
f 9 15 13

f 13 15 19
f 13 19 17

f 12 10 14
f 12 14 16

f 16 14 18
f 16 18 20

f 10 9 13
f 10 13 14

f 14 13 17
f 14 17 18

f 11 12 16
f 11 16 15

f 15 16 20
f 15 20 19