v 0 0 0

v  2 0  0
v  0 0  2
v -2 0  0
v  0 0 -2


v  1.8  0  1
v  1.8  0 -1

v  -1.8 0  1
v  -1.8 0 -1

v  1    0  1.8
v -1    0  1.8

v  1    0 -1.8
v -1    0 -1.8



v  1.8  0.5  0
v  0    0.5  1.8
v -1.8  0.5  0
v  0    0.5 -1.8


v  1.6  0.5  0.8
v  1.6  0.5 -0.8

v  -1.6 0.5  0.8
v  -1.6 0.5 -0.8

v  0.8  0.5  1.6
v -0.8  0.5  1.6

v  0.8  0.5 -1.6
v -0.8  0.5 -1.6



v  1.8 -0.5  0
v  0   -0.5  1.8
v -1.8 -0.5  0
v  0   -0.5 -1.8


v  1.6  -0.5  0.8
v  1.6  -0.5 -0.8

v  -1.6 -0.5  0.8
v  -1.6 -0.5 -0.8

v  0.8  -0.5  1.6
v -0.8  -0.5  1.6

v  0.8  -0.5 -1.6
v -0.8  -0.5 -1.6



v  0.8 0  0
v  0   0  0.8
v -0.8 0  0
v  0   0 -0.8

v  0.8 0.5  0
v  0   0.5  0.8
v -0.8 0.5  0
v  0   0.5 -0.8

v  0.8 -0.5  0
v  0   -0.5  0.8
v -0.8 -0.5  0
v  0   -0.5 -0.8


v  0.6  0  0.6
v -0.6  0  0.6
v  0.6  0 -0.6
v -0.6  0 -0.6

v  0.6  0.5  0.6
v -0.6  0.5  0.6
v  0.6  0.5 -0.6
v -0.6  0.5 -0.6

v  0.6 -0.5  0.6
v -0.6 -0.5  0.6
v  0.6 -0.5 -0.6
v -0.6 -0.5 -0.6



f 12 5 17
f 12 17 24

f 7 12 24
f 7 24 19

f 2 7 19
f 2 19 14

f 6 2 14
f 6 14 18

f 10 6 18
f 10 18 22

f 3 10 22
f 3 22 15

f 11 3 15
f 11 15 23

f 8 11 23
f 8 23 20

f 4 8 20
f 4 20 16

f 9 4 16
f 9 16 21

f 13 9 21
f 13 21 25

f 5 13 25
f 5 25 17



f 36 29 5
f 36 5 12

f 31 36 12
f 31 12 7

f 26 31 7
f 26 7 2

f 30 26 2
f 30 2 6

f 34 30 6
f 34 6 10

f 27 34 10
f 27 10 3

f 35 27 3
f 35 3 11

f 32 35 11
f 32 11 8

f 28 32 8
f 28 8 4

f 33 28 4
f 33 4 9

f 37 33 9
f 37 9 13

f 29 37 13
f 29 13 5


f 17 25 45
f 24 17 45

f 14 19 42
f 18 14 42

f 15 22 43
f 23 15 43

f 16 20 44
f 21 16 44

f 19 24 56
f 22 18 54
f 20 23 55
f 25 21 57

f 24 45 56
f 19 56 42
f 18 42 54
f 22 54 43
f 23 43 55
f 20 55 44
f 21 44 57
f 25 57 45


f 52 1 38
f 38 1 50
f 50 1 39
f 39 1 51
f 51 1 40
f 40 1 53
f 53 1 41
f 41 1 52

f 52 38 42
f 52 42 56
f 38 50 54
f 38 54 42
f 50 39 43
f 50 43 54
f 39 51 55
f 39 55 43
f 51 40 44
f 51 44 55
f 40 53 57
f 40 57 44
f 53 41 45
f 53 45 57
f 41 52 56
f 41 56 45


f 28 33 48
f 32 28 48

f 32 48 59
f 35 32 59
f 35 59 47

f 27 35 47
f 34 27 47

f 34 47 58
f 30 34 58
f 30 58 46

f 26 30 46
f 31 26 46

f 31 46 60
f 36 31 60
f 36 60 49

f 29 36 49
f 37 29 49

f 37 49 61
f 33 37 61
f 33 61 48


f 51 40 1
f 39 51 1
f 50 39 1
f 38 50 1
f 52 38 1
f 41 52 1
f 53 41 1
f 1 40 53

f 61 49 41
f 61 41 53
f 48 61 53
f 48 53 40
f 59 48 40
f 59 40 51
f 47 59 51
f 47 51 39
f 58 47 39
f 58 39 50
f 46 58 50
f 46 50 38
f 60 46 38
f 60 38 52
f 49 60 52
f 49 52 41