#Cuerpo de mazorca

# Vertices de Base
v 2.0 0.0 0.0
v 1.414 0.0 1.414
v 0.0 0.0 2.0
v -1.414 0.0 1.414
v -2.0 0.0 0.0
v -1.414 0.0 -1.414
v -0.0 0.0 -2.0
v 1.414 0.0 -1.414

# Vertices de Tapa (parte inferior, une con base)
v 2.0 6.0 0.0
v 1.414 6.0 1.414
v 0.0 6.0 2.0
v -1.414 6.0 1.414
v -2.0 6.0 0.0
v -1.414 6.0 -1.414
v -0.0 6.0 -2.0
v 1.414 6.0 -1.414

# Vertices de Tapa (parte superior, une con punta)
v 1.4 7.0 0.0
v 0.99 7.0 0.99
v 0.0 7.0 1.4
v -0.99 7.0 0.99
v -1.4 7.0 0.0
v -0.99 7.0 -0.99
v -0.0 7.0 -1.4
v 0.99 7.0 -0.99

# Vertices de Punta
v 0.8 8.0 0.0
v 0.566 8.0 0.566
v 0.0 8.0 0.8
v -0.566 8.0 0.566
v -0.8 8.0 0.0
v -0.566 8.0 -0.566
v -0.0 8.0 -0.8
v 0.566 8.0 -0.566

# Caras de Base
f 1 2 3
f 1 3 4
f 1 4 5
f 1 5 6
f 1 6 7
f 1 7 8

# Caras de Paredes entre base y tapa
f 1 10 2
f 1 9 10
f 2 11 3
f 2 10 11
f 3 12 4
f 3 11 12
f 4 13 5
f 4 12 13
f 5 14 6
f 5 13 14
f 6 15 7
f 6 14 15
f 7 16 8
f 7 15 16
f 8 9 1
f 8 16 9

# Caras de Tapa
f 9 18 10
f 9 17 18
f 10 19 11
f 10 18 19
f 11 20 12
f 11 19 20
f 12 21 13
f 12 20 21
f 13 22 14
f 13 21 22
f 14 23 15
f 14 22 23
f 15 24 16
f 15 23 24
f 16 17 9
f 16 24 17

# Caras de Paredes de la punta
f 17 26 18
f 17 25 26
f 18 27 19
f 18 26 27
f 19 28 20
f 19 27 28
f 20 29 21
f 20 28 29
f 21 30 22
f 21 29 30
f 22 31 23
f 22 30 31
f 23 32 24
f 23 31 32
f 24 25 17
f 24 32 25

# Caras de Punta
f 25 27 26
f 25 28 27
f 25 29 28
f 25 30 29
f 25 31 30
f 25 32 31