

v 7  8 -10
v 9 11 -10

v 7  8 42
v 9 11 42

v 6 11 -10
v 6 11  42


v 3 9 -10
v 3 9  42

v 4 6 -10
v 4 6  42

v 0.5 8 -10
v 0.5 8  42

v 2 5 -10
v 2 5  42

v 0 4 -10
v 0 4  42


v -2 6 -10
v -2 2 -10

v -2 6 42
v -2 2 42

v -9 1 -10
v -9 1 42




v 7  8 -11
v 9 11 -11

v 7  8 43
v 9 11 43

v 6 11 -11
v 6 11  43


v 3 9 -11
v 3 9  43

v 4 6 -11
v 4 6  43

v 0.5 8 -11
v 0.5 8  43

v 2 5 -11
v 2 5  43

v 0 4 -11
v 0 4  43


v -2 6 -11
v -2 2 -11

v -2 6 43
v -2 2 43

v -9 1 -11
v -9 1  43




v -9 1 -7
v -2 2 -7
v -2 6 -7

v -9 1 -6
v -2 2 -6
v -2 6 -6

v -9 1 -3
v -2 2 -3
v -2 6 -3

v -9 1 -2
v -2 2 -2
v -2 6 -2

v -9 1 1
v -2 2 1
v -2 6 1

v -9 1 2
v -2 2 2
v -2 6 2

v -9 1 5
v -2 2 5
v -2 6 5

v -9 1 6
v -2 2 6
v -2 6 6

v -9 1 9
v -2 2 9
v -2 6 9

v -9 1 10
v -2 2 10
v -2 6 10

v -9 1 13
v -2 2 13
v -2 6 13

v -9 1 14
v -2 2 14
v -2 6 14


v -9 1 39
v -2 2 39
v -2 6 39

v -9 1 38
v -2 2 38
v -2 6 38

v -9 1 35
v -2 2 35
v -2 6 35

v -9 1 34
v -2 2 34
v -2 6 34

v -9 1 31
v -2 2 31
v -2 6 31

v -9 1 30
v -2 2 30
v -2 6 30

v -9 1 27
v -2 2 27
v -2 6 27

v -9 1 26
v -2 2 26
v -2 6 26

v -9 1 23
v -2 2 23
v -2 6 23

v -9 1 22
v -2 2 22
v -2 6 22

v -9 1 19
v -2 2 19
v -2 6 19

v -9 1 18
v -2 2 18
v -2 6 18


v 25 8 6
v 25 11 6

v 25 8 26
v 25 11 26

v 9 11 6
v 7 8 6

v 9 11 26
v 7 8 26



f 24 27 28
f 28 26 24

f 26 25 23
f 26 23 24

f 5 1 6
f 1 3 6

f 29 7 5
f 29 5 27

f 33 11 7
f 33 7 29

f 39 17 11
f 39 11 33

f 43 21 17
f 43 17 39

f 40 43 39
f 37 40 39
f 33 37 39
f 35 37 29
f 29 37 33
f 31 35 29
f 23 31 29
f 23 29 27
f 23 27 24

f 21 18 17
f 13 9 7
f 13 7 11
f 9 1 5
f 9 5 7


f 8 30 28
f 8 28 6

f 12 34 30
f 12 30 8

f 19 41 34
f 19 34 12

f 22 44 41
f 22 41 19

f 44 42 41
f 42 38 41
f 38 36 34
f 38 34 41
f 36 32 30
f 36 30 34
f 32 25 28
f 32 28 30
f 25 26 28

f 20 22 19
f 10 14 12
f 10 12 8
f 3 10 8
f 3 8 6


f 18 20 19
f 17 18 19
f 11 17 19
f 11 19 12
f 12 14 13
f 12 13 11



f 45 48 50
f 45 50 47
f 46 45 47
f 48 49 50

f 51 54 56
f 51 56 53
f 52 51 53
f 54 55 56

f 57 60 62
f 57 62 59
f 58 57 59
f 60 61 62

f 66 67 68
f 63 66 68
f 63 68 65
f 63 65 64

f 72 73 74
f 69 71 70
f 69 72 74
f 69 74 71

f 78 79 80
f 75 77 76
f 75 78 80
f 75 80 77

f 111 112 113
f 114 116 115
f 114 111 113
f 116 114 113


f 105 106 107
f 108 110 109
f 108 105 107
f 110 108 107

f 99 100 101
f 102 104 103
f 102 99 101
f 104 102 101


f 93 94 95
f 96 98 97
f 96 93 95
f 98 96 95


f 87 88 89
f 90 92 91
f 90 87 92
f 87 89 92

f 81 82 83
f 84 86 85
f 84 81 83
f 86 84 83



f 117 122 121
f 118 117 121

f 118 121 123
f 120 118 123

f 124 119 120
f 123 124 120

f 124 122 117
f 119 124 117

f 119 117 118
f 120 119 118