v 0 33 26
v 4 28 26
v 4 33 26
v 25 28 26
v 25 33 26
v 9 11 26
v 9 28 26
v 25 11 26
v 7 8 26
v 9 8 26
v 25 8 26
v 73 8 26
v 73 28 26
v 59 28 26
v 59 33 26
v 25 0 26
v 48 0 26
v 48 8 26
v 48 4 26
v 73 4 26
v 0 33 6
v 4 33 6
v 4 28 6
v 25 33 6
v 25 28 6
v 9 28 6
v 9 11 6
v 25 11 6
v 9 8 6
v 7 8 6
v 25 8 6
v 73 28 6
v 73 8 6
v 59 33 6
v 59 28 6
v 25 0 6
v 48 8 6
v 48 0 6
v 48 4 6
v 73 4 6
v 25 8 1
v 25 33 1
v 59 33 1
v 59 8 1
v 59 8 6



f 2 6 7
f 6 8 4
f 4 7 6




f 23 26 27
f 27 25 28
f 25 27 26
f 27 6 2
f 2 23 27



