v -1.5 1.5 0
v 1.5 1.5 0
v -1.5 -1.5 0
v 1.5 -1.5 0
v -1.5 6 0
v 1.5 6 0
v 6 1.5 0
v 6 -1.5 0
v 1.5 -6 0
v -1.5 -6 0
v -6 -1.5 0
v -6 1.5 0
v -1.5 3 0
v 1.5 3 0
v 3 1.5 0
v 3 -1.5 0
v 1.5 -3 0
v -1.5 -3 0
v -3 -1.5 0
v -3 1.5 0

v -1.5 1.5 2
v 1.5 1.5 2
v -1.5 -1.5 2
v 1.5 -1.5 2
v -1.5 6 2
v 1.5 6 2
v 6 1.5 2
v 6 -1.5 2
v 1.5 -6 2
v -1.5 -6 2
v -6 -1.5 2
v -6 1.5 2
v -1.5 3 2
v 1.5 3 2
v 3 1.5 2
v 3 -1.5 2
v 1.5 -3 2
v -1.5 -3 2
v -3 -1.5 2
v -3 1.5 2

v -1.5 1.5 -2
v 1.5 1.5 -2
v -1.5 -1.5 -2
v 1.5 -1.5 -2
v -1.5 6 -2
v 1.5 6 -2
v 6 1.5 -2
v 6 -1.5 -2
v 1.5 -6 -2
v -1.5 -6 -2
v -6 -1.5 -2
v -6 1.5 -2
v -1.5 3 -2
v 1.5 3 -2
v 3 1.5 -2
v 3 -1.5 -2
v 1.5 -3 -2
v -1.5 -3 -2
v -3 -1.5 -2
v -3 1.5 -2



f 1 3 2
f 3 4 2
f 1 2 6
f 6 5 1
f 2 8 7
f  8 2 4
f 4 10 9
f 10 4 3
f 3 12 11
f 12 3 1
f 12 1 5
f 6 2 7
f 8 4 9
f 10 3 11

f 1 2 3
f 3 2 4
f 1 6 2
f 6 1 5
f 2 7 8
f  8 4 2
f 4 9 10
f 10 3 4
f 3 11 12
f 12 1 3
f 12 5 1
f 6 7 2
f 8 9 4
f 10 11 3

f 21 23 22
f 23 24 22
f 21 2 1
f 2 21 22
f 22 4 2
f 4 22 24
f 24 3 4
f 3 24 23
f 23 1 3
f 1 23 21

f 33 34 26
f 26 25 33
f 35 28 27
f 28 35 36
f 37 30 29
f 30 37 38
f 39 32 31
f 32 39 40
f 32 33 25
f 33 32 40
f 26 35 27
f 35 26 34
f 28 37 29
f 37 28 36
f 30 39 31
f 39 30 38
f 32 5 12
f 5 32 25
f 25 6 5
f 6 25 26
f 26 7 6
f 7 26 27
f 27 8 7
f 8 27 28
f 28 9 8
f 9 28 29
f 29 10 9
f 10 29 30
f 30 11 10
f 11 30 31
f 31 12 11
f 12 31 32
f 33 13 14
f 14 34 33
f 34 14 15
f 15 35 34
f 35 15 16
f 16 36 35
f 36 16 17
f 17 37 36
f 37 17 18
f 18 38 37
f 38 18 19
f 19 39 38
f 39 19 20
f 20 40 39
f 40 20 13
f 13 33 40

f 53 46 54
f 46 53 45
f 55 47 48
f 48 56 55
f 57 49 50
f 50 58 57
f 59 51 52
f 52 60 59
f 52 45 53
f 53 60 52
f 46 47 55
f 55 54 46
f 48 49 57
f 57 56 48
f 50 51 59
f 59 58 50
f 52 12 5
f 5 45 52
f 45 5 6
f 6 46 45
f 46 6 7
f 7 47 46
f 47 7 8
f 8 48 47
f 48 8 9
f 9 49 48
f 49 9 10
f 10 50 49
f 50 10 11
f 11 51 50
f 51 11 12
f 12 52 51
f 53 14 13
f 14 53 54
f 54 15 14
f 15 54 55
f 55 16 15
f 16 55 56
f 56 17 16
f 17 56 57
f 57 18 17
f 18 57 58
f 58 19 18
f 19 58 59
f 59 20 19
f 20 59 60
f 60 13 20
f 13 60 53



