# Turbina Eolica

# Base
v 1 0 2
v 0.5 0 1.86
v 0.13 0 1.5
v 0 0 1
v 0.13 0 0.5
v 0.5 0 0.13
v 1 0 0
v 1.5 0 0.13
v 1.86 0 0.5
v 2 0 1
v 1.86 0 1.5
v 1.5 0 1.86
v 1 0 1

# Caras Base
f 1 2 13
f 2 3 13
f 3 4 13
f 4 5 13
f 5 6 13
f 6 7 13
f 7 8 13
f 8 9 13
f 9 10 13
f 10 11 13
f 11 12 13
f 12 1 13

# Tapa
v 1 5 1.5
v 0.75 5 1.43
v 0.56 5 1.25
v 0.5 5 1
v 0.56 5 0.75
v 0.75 5 0.56
v 1 5 0.5
v 1.25 5 0.56
v 1.43 5 0.75
v 1.5 5 1
v 1.43 5 1.25
v 1.25 5 1.43
v 1 5 1

# Caras Tapa
f 14 26 15
f 15 26 16
f 16 26 17
f 17 26 18
f 18 26 19
f 19 26 20
f 20 26 21
f 21 26 22
f 22 26 23
f 23 26 24
f 24 26 25
f 25 26 14

# Paredes
f 1 15 2
f 1 14 15
f 2 16 3
f 2 15 16
f 3 17 4
f 3 16 17
f 4 18 5
f 4 17 18
f 5 19 6
f 5 18 19
f 6 20 7
f 6 19 20
f 7 21 8
f 7 20 21
f 8 22 9
f 8 21 22
f 9 23 10
f 9 22 23
f 10 24 11
f 10 23 24
f 11 25 12
f 11 24 25
f 12 14 1
f 12 25 14