# Apple ModelIO OBJ File: Vehicle
mtllib Vehicle.mtl
g 
v 0 33 26
v 4 28 26
v 4 33 26
v 25 28 26
v 25 33 26
v 9 11 26
v 9 28 26
v 25 11 26
v 7 8 26
v 9 8 26
v 25 8 26
v 73 8 26
v 73 28 26
v 59 28 26
v 59 33 26
v 25 0 26
v 48 0 26
v 48 8 26
v 48 4 26
v 73 4 26
v 0 33 6
v 4 33 6
v 4 28 6
v 25 33 6
v 25 28 6
v 9 28 6
v 9 11 6
v 25 11 6
v 9 8 6
v 7 8 6
v 25 8 6
v 73 28 6
v 73 8 6
v 59 33 6
v 59 28 6
v 25 0 6
v 48 8 6
v 48 0 6
v 48 4 6
v 73 4 6
v 25 8 1
v 25 33 1
v 59 33 1
v 59 8 1
v 59 8 6
v 48 4 1
v 36 8 1
v 48 8 1
v 54 4 1
v 54 8 1
v 36 8 6
v 54 4 6
v 69 8 3
v 59 25 1
v 69 25 3
v 69 8 6
v 69 25 6
v 59 25 3
v 59 25 6
v 59 8 3
v 25 8 31
v 25 28 31
v 59 8 31
v 59 28 31
v 59 8 26
v 48 4 31
v 48 8 31
v 36 8 31
v 54 4 31
v 54 8 31
v 36 8 26
v 54 4 26
v 69 8 29
v 59 25 31
v 69 25 29
v 69 8 26
v 69 25 26
v 59 25 29
v 59 25 26
v 59 8 29
v 25 37 26
v 25 18 26
v 48 18 26
v 48 37 26
v 25 37 6
v 25 18 6
v 48 18 6
v 48 37 6
v 48 33 26
v 48 33 6
v 25 0 0
v 25 0 32
v 25 -3 0
v 25 -3 32
v 22 0 0
v 22 -3 0
v 22 0 32
v 22 -3 32
v 61 -1 0
v 61 -1 32
v 61 -4 0
v 61 -4 32
v 58 -1 0
v 58 -4 0
v 58 -1 32
v 58 -4 32
v 58 -1 13
v 48 3 13
v 58 -1 19
v 48 3 19

v 58 -4 13
v 48 0 13
v 58 -4 19
v 48 0 19

v 25 33 31
v 25 33 26

v 36 28 31
v 36 28 26
v 36 33 31
v 36 33 26
usemtl material_1
f 1 2 3
f 2 4 5
f 5 3 2
f 2 6 7
f 6 8 4
f 4 7 6
f 6 9 10
f 10 11 8
f 8 6 10
f 11 12 13
f 13 4 11
f 4 14 15
f 15 5 4
f 16 17 18
f 18 11 16
f 19 20 12
f 12 18 19
f 21 22 23
f 23 24 25
f 24 23 22
f 23 26 27
f 27 25 28
f 25 27 26
f 27 29 30
f 29 28 31
f 27 28 29
f 31 32 33
f 32 31 25
f 25 34 35
f 34 25 24
f 36 37 38
f 37 36 31
f 39 33 40
f 33 39 37
f 27 6 2
f 2 23 27
f 30 9 6
f 6 27 30
f 23 2 1
f 1 21 23
f 31 9 30
f 9 31 11
f 36 16 11
f 11 31 36
f 38 16 36
f 16 38 17
f 38 19 17
f 19 38 39
f 39 40 20
f 20 19 39
f 40 32 13
f 13 20 40
f 32 35 14
f 14 13 32
f 35 34 15
f 15 14 35
f 1 5 24
f 24 21 1
f 41 31 24
f 24 42 41
f 41 43 44
f 43 41 42
f 44 31 41
f 31 44 45
f 45 44 43
f 43 34 45
f 34 43 42
f 42 24 34
f 46 47 48
f 49 46 48
f 48 50 49
f 44 49 50
f 47 46 51
f 46 39 51
f 49 52 39
f 39 46 49
f 45 49 44
f 52 49 45
f 53 44 54
f 54 55 53
f 56 53 55
f 55 57 56
f 57 55 58
f 58 59 57
f 55 54 59
f 56 60 53
f 60 56 45
f 53 60 44
f 61 4 11
f 4 61 62
f 61 63 64
f 64 62 61
f 63 61 11
f 11 65 63
f 65 64 63
f 64 65 14
f 14 62 64
f 14 4 62
f 66 67 68
f 69 67 66
f 67 69 70
f 63 70 69
f 68 71 66
f 66 71 19
f 72 69 66
f 72 66 19
f 69 72 65
f 65 63 69
f 73 74 63
f 74 73 75
f 76 75 73
f 75 76 77
f 77 78 75
f 78 77 79
f 75 79 74
f 76 73 80
f 80 65 76
f 73 63 80
f 81 82 83
f 83 84 81
f 81 83 82
f 83 81 84
f 85 86 87
f 87 88 85
f 85 87 86
f 87 85 88
f 81 82 86
f 86 85 81
f 81 86 82
f 86 81 85
f 84 83 87
f 87 88 84
f 84 87 83
f 87 84 88
f 82 83 87
f 87 86 82
f 89 34 90
f 34 89 15
f 91 92 93
f 93 92 94
f 95 96 97
f 96 98 97
f 91 95 97
f 97 92 91
f 91 96 95
f 96 91 93
f 92 97 98
f 93 98 96
f 93 94 98
f 98 94 92
f 99 100 101
f 101 100 102
f 103 104 105
f 104 106 105
f 99 103 105
f 105 100 99
f 99 104 103
f 104 99 101
f 100 105 106
f 101 106 104
f 101 102 106
f 106 102 100
f 107 108 109
f 109 108 110
f 111 113 112
f 113 114 112
f 111 112 108
f 108 107 111
f 109 114 113
f 114 109 110

f 4 62 115
f 115 116 4
f 117 118 119
f 119 118 120
f 115 62 117
f 117 119 115
f 115 120 116
f 120 115 119

s off
