v 0 0 0
v 3 0 0
v 3 0 5
v 0 0 5

v 3 3 5
v 0 3 5

v 0.5 3 0.5
v 2.5 3 0.5

v 0.4 1.5 0
v 2.6 1.5 0
v 0 1.5 0.4
v 3 1.5 0.4


v -1 0 5
v  4 0 5

v -1 3 5.3
v  4 3 5.3

v -0.4 6 6
v  3.4 6 6



v -1 0 7
v  4 0 7

v -1 3 9
v  4 3 9

v -0.4 6 9
v  3.4 6 9

v -1 2 9
v  4 2 9

v -1 1.5 7.5
v  4 1.5 7.5

v -2 0 7
v  5 0 7

v -2 2 9
v  5 2 9

v -2 1.5 7.5
v  5 1.5 7.5

v -1 1.8 10.5
v  4 1.8 10.5
v -2 1.8 10.5
v  5 1.8 10.5

v -1 0 9
v 4 0 9


v  0 0 3
v -1 0 3

v  0 1 2
v -1 1 2

v  0 1 1
v -1 1 1



v  3 0 3
v  4 0 3

v  3 1 2
v  4 1 2

v  3 1 1
v  4 1 1



v 1  0   0
v 2  0   0
v 1 -0.8 0
v 2 -0.8 0

v 1  1  0
v 2  1  0
v 1  1 -1
v 2  1 -1
v 1  0 -0.6
v 2  0 -0.6


v 1  0   10 
v 2  0   10
v 1 -0.8 10
v 2 -0.8 10


v 2 0 1
v 2 0 2
v 3 0 1
v 3 0 2

v 2 -0.8 1
v 2 -0.8 2
v 3 -0.8 1
v 3 -0.8 2


v 1 0 1
v 1 0 2
v 0 0 1
v 0 0 2

v 1 -0.8 1
v 1 -0.8 2
v 0 -0.8 1
v 0 -0.8 2


v 1  0   9 
v 2  0   9
v 1 -0.8 9
v 2 -0.8 9


v  4  0   10 
v  4 -0.8 10
v  4  0   9 
v  4 -0.8 9

v  -1  0   10 
v  -1 -0.8 10 
v  -1 -0.8 9



f 2 1 9
f 2 9 10

f 10 9 7
f 10 7 8

f 1 11 9
f 9 11 7

f 1 4 11
f 11 4 6
f 11 6 7

f 2 10 12
f 12 10 8

f 3 2 12
f 3 12 5
f 5 12 8
f 8 7 6
f 5 8 6


f 5 6 17
f 5 17 18
f 6 15 17
f 16 5 18
f 4 13 15
f 4 15 6
f 14 3 5
f 14 5 16

f 13 19 15
f 19 27 15
f 27 21 15
f 15 21 23
f 15 23 17
f 19 29 33
f 19 33 27
f 27 33 31
f 27 31 25
f 27 25 21
f 37 35 25
f 37 25 31
f 19 39 25
f 19 25 27
f 19 29 33
f 33 19 27
f 29 19 33
f 33 27 25
f 33 25 31
f 35 37 31
f 35 31 25

f 39 40 22
f 39 22 21
f 35 39 25
f 39 35 25

f 21 22 24
f 21 24 23
f 20 14 16
f 20 16 28
f 28 16 22
f 26 28 22
f 22 16 18
f 22 18 24

f 24 18 17
f 24 17 23

f 30 20 28
f 30 28 34
f 34 28 26
f 34 26 32
f 36 38 32
f 36 32 26

f 40 36 26

f 40 20 26
f 36 40 26
f 26 20 28

f 20 30 34
f 20 34 28

f 28 34 32
f 28 32 26
f 26 32 38
f 26 38 36


f 42 41 43
f 42 43 44
f 44 43 45
f 44 45 46
f 41 42 44
f 41 44 43
f 43 44 46
f 43 46 45


f 47 48 50
f 47 50 49
f 49 50 52
f 49 52 51

f 48 47 49
f 48 49 50
f 50 49 51
f 50 51 52



f 61 53 57
f 61 57 59

f 59 57 58
f 59 58 60

f 62 61 59
f 62 59 60

f 54 62 60
f 54 60 58

f 56 55 61
f 56 61 62

f 55 53 61
f 56 62 54


f 65 66 64
f 65 64 63

f 55 65 63
f 55 63 53

f 66 56 54
f 66 54 64


f 82 80 76
f 82 76 78

f 81 82 78
f 81 78 77

f 79 81 77
f 79 77 75

f 73 71 67
f 73 67 69

f 74 73 69
f 74 69 70

f 72 74 70
f 72 70 68


f 63 64 84
f 63 84 83

f 92 65 63
f 92 63 91

f 91 63 83
f 91 83 39

f 93 92 91
f 93 91 39

f 85 93 39
f 85 39 83

f 66 88 87
f 66 87 64

f 64 87 40
f 64 40 84

f 88 90 40
f 88 40 87

f 90 86 84
f 90 84 40